<svg width="40" height="40" viewBox="0 0 40 40" fill="none" xmlns="http://www.w3.org/2000/svg">
<rect width="40" height="40" rx="2" fill="#FAFAFA"/>
<path d="M26.1331 15.8537V13.6136C26.1331 12.1728 24.9836 11 23.5427 11H16.4805C15.0396 11 13.8665 12.1723 13.8665 13.6136V15.8533H11.1373C10.5092 15.8533 10 16.3625 10 16.9906V19.463C10 20.0916 10.5092 20.6004 11.1373 20.6004H11.4763L12.719 27.4274C12.8172 27.9678 13.2885 28.3607 13.8378 28.3607H26.1858C26.7355 28.3607 27.206 27.9678 27.3046 27.4269L28.5465 20.6004H28.8627C29.4908 20.6004 30 20.0916 30 19.463V16.9906C30 16.3625 29.4908 15.8533 28.8627 15.8533L26.1331 15.8537ZM15.9734 13.6136C15.9734 13.3388 16.2056 13.1069 16.4805 13.1069H23.544C23.8184 13.1069 24.0271 13.3388 24.0271 13.6136V15.8533H15.9734V13.6136ZM17.5466 24.2961C17.5466 24.7332 17.1971 25.0873 16.76 25.0873C16.3232 25.0873 15.9734 24.7332 15.9734 24.2961V19.9525C15.9734 19.5153 16.3232 19.1616 16.76 19.1616C17.1975 19.1616 17.5466 19.5161 17.5466 19.9525V24.2961ZM20.8001 24.2961C20.8001 24.7332 20.4502 25.0873 20.0135 25.0873C19.5768 25.0873 19.2265 24.7332 19.2265 24.2961V19.9525C19.2265 19.5153 19.5768 19.1616 20.0135 19.1616C20.4506 19.1616 20.8001 19.5161 20.8001 19.9525V24.2961ZM24.0536 24.2961C24.0536 24.7332 23.7037 25.0873 23.2674 25.0873C22.8303 25.0873 22.4804 24.7332 22.4804 24.2961V19.9525C22.4804 19.5153 22.8303 19.1616 23.2674 19.1616C23.7037 19.1616 24.0536 19.5161 24.0536 19.9525V24.2961Z" fill="#C11F32"/>
</svg>
