<svg width="54" height="54" viewBox="0 0 54 54" fill="none" xmlns="http://www.w3.org/2000/svg">
<rect y="6" width="48" height="48" rx="4" fill="white"/>
<path d="M31.3598 25.8245V23.1363C31.3598 21.4073 29.9803 20 28.2512 20H19.7766C18.0476 20 16.6397 21.4068 16.6397 23.1363V25.824H13.3648C12.6111 25.824 12 26.435 12 27.1888V30.1556C12 30.9099 12.6111 31.5204 13.3648 31.5204H13.7715L15.2628 39.7128C15.3807 40.3614 15.9462 40.8328 16.6053 40.8328H31.423C32.0826 40.8328 32.6472 40.3614 32.7655 39.7123L34.2558 31.5204H34.6352C35.3889 31.5204 36 30.9099 36 30.1556V27.1888C36 26.435 35.3889 25.824 34.6352 25.824L31.3598 25.8245ZM19.168 23.1363C19.168 22.8065 19.4468 22.5283 19.7766 22.5283H28.2528C28.5821 22.5283 28.8325 22.8065 28.8325 23.1363V25.824H19.168V23.1363ZM21.0559 35.9553C21.0559 36.4799 20.6365 36.9048 20.112 36.9048C19.5879 36.9048 19.168 36.4799 19.168 35.9553V30.7429C19.168 30.2184 19.5879 29.7939 20.112 29.7939C20.637 29.7939 21.0559 30.2194 21.0559 30.7429V35.9553ZM24.9601 35.9553C24.9601 36.4799 24.5403 36.9048 24.0162 36.9048C23.4921 36.9048 23.0717 36.4799 23.0717 35.9553V30.7429C23.0717 30.2184 23.4921 29.7939 24.0162 29.7939C24.5408 29.7939 24.9601 30.2194 24.9601 30.7429V35.9553ZM28.8643 35.9553C28.8643 36.4799 28.4445 36.9048 27.9209 36.9048C27.3963 36.9048 26.9765 36.4799 26.9765 35.9553V30.7429C26.9765 30.2184 27.3963 29.7939 27.9209 29.7939C28.4445 29.7939 28.8643 30.2194 28.8643 30.7429V35.9553Z" fill="#C11F32"/>
<circle cx="42" cy="12" r="12" fill="#383838"/>
<path d="M41.3633 14.875V16H35.6445V15.0332L38.4219 12.0039C38.7266 11.6602 38.9668 11.3633 39.1426 11.1133C39.3184 10.8633 39.4414 10.6387 39.5117 10.4395C39.5859 10.2363 39.623 10.0391 39.623 9.84766C39.623 9.57812 39.5723 9.3418 39.4707 9.13867C39.373 8.93164 39.2285 8.76953 39.0371 8.65234C38.8457 8.53125 38.6133 8.4707 38.3398 8.4707C38.0234 8.4707 37.7578 8.53906 37.543 8.67578C37.3281 8.8125 37.166 9.00195 37.0566 9.24414C36.9473 9.48242 36.8926 9.75586 36.8926 10.0645H35.4805C35.4805 9.56836 35.5938 9.11523 35.8203 8.70508C36.0469 8.29102 36.375 7.96289 36.8047 7.7207C37.2344 7.47461 37.752 7.35156 38.3574 7.35156C38.9277 7.35156 39.4121 7.44727 39.8105 7.63867C40.209 7.83008 40.5117 8.10156 40.7188 8.45312C40.9297 8.80469 41.0352 9.2207 41.0352 9.70117C41.0352 9.9668 40.9922 10.2305 40.9062 10.4922C40.8203 10.7539 40.6973 11.0156 40.5371 11.2773C40.3809 11.5352 40.1953 11.7949 39.9805 12.0566C39.7656 12.3145 39.5293 12.5762 39.2715 12.8418L37.4258 14.875H41.3633ZM43.9473 12.0332L42.8223 11.7578L43.2852 7.46875H47.8848V8.66406H44.457L44.2227 10.7559C44.3555 10.6777 44.5391 10.6016 44.7734 10.5273C45.0078 10.4492 45.2754 10.4102 45.5762 10.4102C45.9785 10.4102 46.3379 10.4766 46.6543 10.6094C46.9746 10.7383 47.2461 10.9277 47.4688 11.1777C47.6914 11.4238 47.8613 11.7246 47.9785 12.0801C48.0957 12.4316 48.1543 12.8281 48.1543 13.2695C48.1543 13.6641 48.0957 14.0332 47.9785 14.377C47.8652 14.7207 47.6934 15.0234 47.4629 15.2852C47.2324 15.5469 46.9414 15.752 46.5898 15.9004C46.2422 16.0449 45.8301 16.1172 45.3535 16.1172C44.998 16.1172 44.6562 16.0664 44.3281 15.9648C44.0039 15.8594 43.7129 15.7051 43.4551 15.502C43.1973 15.2949 42.9902 15.041 42.834 14.7402C42.6777 14.4355 42.5879 14.0859 42.5645 13.6914H43.9473C43.9824 13.9688 44.0586 14.2051 44.1758 14.4004C44.2969 14.5918 44.457 14.7383 44.6562 14.8398C44.8555 14.9414 45.0859 14.9922 45.3477 14.9922C45.5859 14.9922 45.791 14.9512 45.9629 14.8691C46.1348 14.7832 46.2773 14.6621 46.3906 14.5059C46.5078 14.3457 46.5938 14.1582 46.6484 13.9434C46.707 13.7285 46.7363 13.4902 46.7363 13.2285C46.7363 12.9785 46.7031 12.75 46.6367 12.543C46.5742 12.3359 46.4785 12.1562 46.3496 12.0039C46.2246 11.8516 46.0664 11.7344 45.875 11.6523C45.6836 11.5664 45.4629 11.5234 45.2129 11.5234C44.877 11.5234 44.6191 11.5723 44.4395 11.6699C44.2637 11.7676 44.0996 11.8887 43.9473 12.0332Z" fill="white"/>
</svg>
