<svg width="24" height="24" viewBox="0 0 24 24" fill="none" xmlns="http://www.w3.org/2000/svg">
<g clip-path="url(#clip0_569_2143)">
<path d="M9.11622 0H2.33911C1.09341 0 0.0800781 1.00927 0.0800781 2.25V9C0.0800781 10.2407 1.09341 11.25 2.33911 11.25H9.11622C10.3619 11.25 11.3753 10.2407 11.3753 9V2.25C11.3753 1.00927 10.3619 0 9.11622 0Z" fill="#C11F32"/>
<path d="M21.917 0H15.1399C13.8942 0 12.8809 1.00927 12.8809 2.25V9C12.8809 10.2407 13.8942 11.25 15.1399 11.25H21.917C23.1627 11.25 24.176 10.2407 24.176 9V2.25C24.176 1.00927 23.1627 0 21.917 0Z" fill="#C11F32"/>
<path d="M21.917 12.75H15.1399C13.8942 12.75 12.8809 13.7593 12.8809 15V21.75C12.8809 22.9907 13.8942 24 15.1399 24H21.917C23.1627 24 24.176 22.9907 24.176 21.75V15C24.176 13.7593 23.1627 12.75 21.917 12.75Z" fill="#C11F32"/>
<path d="M9.11622 12.75H2.33911C1.09341 12.75 0.0800781 13.7593 0.0800781 15V21.75C0.0800781 22.9907 1.09341 24 2.33911 24H9.11622C10.3619 24 11.3753 22.9907 11.3753 21.75V15C11.3753 13.7593 10.3619 12.75 9.11622 12.75Z" fill="#C11F32"/>
</g>
<defs>
<clipPath id="clip0_569_2143">
<rect width="24" height="24" fill="white"/>
</clipPath>
</defs>
</svg>
