<svg width="32" height="32" viewBox="0 0 32 32" fill="none" xmlns="http://www.w3.org/2000/svg">
<path d="M27.3707 21.6136L24.0143 18.2643C22.8157 17.0681 20.7779 17.5466 20.2984 19.1016C19.9388 20.1782 18.7401 20.7763 17.6613 20.537C15.2639 19.9389 12.0275 16.8289 11.4281 14.3169C11.0685 13.2403 11.7877 12.0442 12.8666 11.6854C14.4249 11.2069 14.9043 9.17342 13.7056 7.97726L10.3493 4.62799C9.39038 3.79067 7.95195 3.79067 7.11287 4.62799L4.83537 6.9007C2.55787 9.29304 5.07511 15.6327 10.7089 21.2547C16.3428 26.8767 22.6958 29.5083 25.0932 27.1159L27.3707 24.8432C28.2098 23.8863 28.2098 22.4509 27.3707 21.6136Z" fill="white"/>
</svg>
