<svg width="41" height="40" viewBox="0 0 41 40" fill="none" xmlns="http://www.w3.org/2000/svg">
<path d="M31.2943 29.8602L25.5823 23.9194C27.0509 22.1735 27.8556 19.9768 27.8556 17.69C27.8556 12.347 23.5086 8 18.1656 8C12.8227 8 8.47565 12.347 8.47565 17.69C8.47565 23.033 12.8227 27.38 18.1656 27.38C20.1715 27.38 22.0829 26.775 23.7172 25.6265L29.4726 31.6124C29.7132 31.8622 30.0367 32 30.3835 32C30.7116 32 31.023 31.8749 31.2593 31.6474C31.7615 31.1641 31.7775 30.3628 31.2943 29.8602ZM18.1656 10.5278C22.1149 10.5278 25.3278 13.7407 25.3278 17.69C25.3278 21.6393 22.1149 24.8522 18.1656 24.8522C14.2163 24.8522 11.0035 21.6393 11.0035 17.69C11.0035 13.7407 14.2163 10.5278 18.1656 10.5278Z" fill="#C11F32"/>
</svg>
