<svg width="21" height="24" viewBox="0 0 21 24" fill="none" xmlns="http://www.w3.org/2000/svg">
<path fill-rule="evenodd" clip-rule="evenodd" d="M14.9148 9.86733C13.791 10.9912 12.4158 11.5609 10.8275 11.5609C9.23962 11.5609 7.8645 10.991 6.7406 9.86751C5.6167 8.7438 5.04688 7.36868 5.04688 5.78025C5.04688 4.19218 5.6167 2.81707 6.74042 1.69335C7.86413 0.569639 9.23907 0 10.8275 0C12.4156 0 13.7907 0.569639 14.9146 1.69317C16.0385 2.81725 16.6081 4.19237 16.6081 5.78025C16.6081 7.36868 16.0385 8.74362 14.9148 9.86733ZM20.749 16.9383C20.8455 17.477 20.9111 17.9871 20.9435 18.4548C20.9755 18.9118 20.9918 19.3888 20.992 19.8724C20.992 21.1257 20.5937 22.1401 19.8082 22.8875C19.0324 23.6258 18.0065 24.0001 16.7584 24.0001H5.20231C3.95427 24.0001 2.92797 23.6256 2.15234 22.8875C1.367 22.1396 0.96875 21.1253 0.96875 19.8725C0.96875 19.3912 0.984863 18.9145 1.01672 18.4553C1.04913 17.9866 1.11468 17.4762 1.21118 16.9383C1.30859 16.3956 1.43402 15.8827 1.58398 15.4138C1.73925 14.9287 1.95019 14.4503 2.21075 13.9916C2.48101 13.5157 2.79907 13.1013 3.15557 12.76C3.52892 12.4028 3.98577 12.1159 4.51347 11.9069C5.03954 11.6986 5.62254 11.5929 6.24656 11.5929C6.49156 11.5929 6.72868 11.6934 7.18571 11.9913C7.47153 12.1776 7.80112 12.39 8.16532 12.6227C8.47934 12.823 8.90524 13.0107 9.43075 13.1804C9.94454 13.3465 10.4655 13.4307 10.9798 13.4307C11.4942 13.4307 12.0153 13.3465 12.5285 13.1804C13.0546 13.0105 13.4805 12.8228 13.7949 12.6225C14.1625 12.3876 14.492 12.1752 14.7736 11.9915C15.2311 11.6936 15.4681 11.5931 15.7131 11.5931C16.3369 11.5931 16.9201 11.6986 17.4463 11.9068C17.9744 12.116 18.4311 12.403 18.8041 12.7598C19.1608 13.101 19.4786 13.5155 19.7493 13.9916C20.01 14.4503 20.2209 14.9289 20.376 15.4136C20.5262 15.8825 20.6516 16.3956 20.749 16.9383Z" fill="#C11F32"/>
</svg>
