<svg width="40" height="40" viewBox="0 0 40 40" fill="none" xmlns="http://www.w3.org/2000/svg">
<g id="Close">
<circle id="Ellipse 405" cx="20" cy="20" r="20" fill="#FAFAFA" fill-opacity="0.08"/>
<g id="Union">
<path fill-rule="evenodd" clip-rule="evenodd" d="M23.9448 24.652C24.1401 24.8472 24.4567 24.8472 24.652 24.652C24.8472 24.4567 24.8472 24.1401 24.652 23.9448L20.6071 19.9L24.652 15.8552C24.8472 15.6599 24.8472 15.3433 24.652 15.148C24.4567 14.9528 24.1401 14.9528 23.9448 15.148L19.9 19.1929L15.8536 15.1464C15.6583 14.9512 15.3417 14.9512 15.1464 15.1464C14.9512 15.3417 14.9512 15.6583 15.1464 15.8536L19.1929 19.9L15.1464 23.9464C14.9512 24.1417 14.9512 24.4583 15.1464 24.6536C15.3417 24.8488 15.6583 24.8488 15.8536 24.6536L19.9 20.6071L23.9448 24.652Z" fill="#727272"/>
<path d="M24.652 24.652L25.0055 25.0055L25.0055 25.0055L24.652 24.652ZM23.9448 24.652L23.5913 25.0055L23.5913 25.0055L23.9448 24.652ZM24.652 23.9448L25.0055 23.5913L25.0055 23.5913L24.652 23.9448ZM20.6071 19.9L20.2536 19.5464C20.0583 19.7417 20.0583 20.0583 20.2536 20.2536L20.6071 19.9ZM24.652 15.8552L25.0055 16.2087V16.2087L24.652 15.8552ZM24.652 15.148L25.0055 14.7945L25.0055 14.7945L24.652 15.148ZM23.9448 15.148L23.5913 14.7945L23.5913 14.7945L23.9448 15.148ZM19.9 19.1929L19.5464 19.5464C19.6402 19.6402 19.7674 19.6929 19.9 19.6929C20.0326 19.6929 20.1598 19.6402 20.2536 19.5464L19.9 19.1929ZM15.8536 15.1464L15.5 15.5L15.8536 15.1464ZM15.1464 15.1464L15.5 15.5L15.5 15.5L15.1464 15.1464ZM15.1464 15.8536L14.7929 16.2071L15.1464 15.8536ZM19.1929 19.9L19.5464 20.2536C19.7417 20.0583 19.7417 19.7417 19.5464 19.5464L19.1929 19.9ZM15.1464 23.9464L15.5 24.3L15.1464 23.9464ZM15.1464 24.6536L14.7929 25.0071H14.7929L15.1464 24.6536ZM15.8536 24.6536L16.2071 25.0071L15.8536 24.6536ZM19.9 20.6071L20.2536 20.2536C20.1598 20.1598 20.0326 20.1071 19.9 20.1071C19.7674 20.1071 19.6402 20.1598 19.5464 20.2536L19.9 20.6071ZM24.2984 24.2984H24.2984L23.5913 25.0055C23.9818 25.396 24.615 25.396 25.0055 25.0055L24.2984 24.2984ZM24.2984 24.2984V24.2984L25.0055 25.0055C25.396 24.615 25.396 23.9818 25.0055 23.5913L24.2984 24.2984ZM20.2536 20.2536L24.2984 24.2984L25.0055 23.5913L20.9607 19.5464L20.2536 20.2536ZM24.2984 15.5016L20.2536 19.5464L20.9607 20.2536L25.0055 16.2087L24.2984 15.5016ZM24.2984 15.5016V15.5016L25.0055 16.2087C25.396 15.8182 25.396 15.185 25.0055 14.7945L24.2984 15.5016ZM24.2984 15.5016H24.2984L25.0055 14.7945C24.615 14.404 23.9818 14.404 23.5913 14.7945L24.2984 15.5016ZM20.2536 19.5464L24.2984 15.5016L23.5913 14.7945L19.5464 18.8393L20.2536 19.5464ZM15.5 15.5L19.5464 19.5464L20.2536 18.8393L16.2071 14.7929L15.5 15.5ZM15.5 15.5V15.5L16.2071 14.7929C15.8166 14.4024 15.1834 14.4024 14.7929 14.7929L15.5 15.5ZM15.5 15.5L15.5 15.5L14.7929 14.7929C14.4024 15.1834 14.4024 15.8166 14.7929 16.2071L15.5 15.5ZM19.5464 19.5464L15.5 15.5L14.7929 16.2071L18.8393 20.2536L19.5464 19.5464ZM15.5 24.3L19.5464 20.2536L18.8393 19.5464L14.7929 23.5929L15.5 24.3ZM15.5 24.3L15.5 24.3L14.7929 23.5929C14.4024 23.9834 14.4024 24.6166 14.7929 25.0071L15.5 24.3ZM15.5 24.3H15.5L14.7929 25.0071C15.1834 25.3976 15.8166 25.3976 16.2071 25.0071L15.5 24.3ZM19.5464 20.2536L15.5 24.3L16.2071 25.0071L20.2536 20.9607L19.5464 20.2536ZM24.2984 24.2984L20.2536 20.2536L19.5464 20.9607L23.5913 25.0055L24.2984 24.2984Z" fill="white"/>
</g>
</g>
</svg>
