<svg width="83" height="32" viewBox="0 0 83 32" fill="none" xmlns="http://www.w3.org/2000/svg">
<g opacity="0.56" clip-path="url(#clip0_1285_2489)">
<path d="M10.604 31.9947C10.7102 31.5825 10.8387 31.1764 10.9891 30.7782C11.2466 29.9146 11.2785 29.7863 11.4711 28.9227C11.7902 27.419 11.7604 27.5451 11.7902 26.2354C11.7902 25.1757 11.7902 25.0835 11.7264 24.7635C11.5658 23.8034 11.1477 22.8762 10.5061 22.2044C9.76145 21.4043 8.99547 21.0525 7.84012 20.9879C7.26139 20.9561 6.49009 20.8279 6.10497 20.67C5.77708 20.5604 5.46433 20.4102 5.1741 20.2228C4.59536 19.871 3.92087 19.0709 3.79108 18.6863L3.75917 18.6227L3.823 18.6545L4.24429 19.0741C4.46876 19.2659 4.6943 19.4577 4.79005 19.5213C5.26789 19.7738 5.77483 19.9673 6.29966 20.0978C6.50017 20.1417 6.70501 20.163 6.91031 20.1613C7.28737 20.1662 7.664 20.1343 8.03481 20.066C8.45184 20.0342 8.83802 19.9695 8.86994 19.9695C9.09441 19.9695 10.0583 20.5778 10.604 21.0292C11.5963 21.8736 12.2562 23.0408 12.4668 24.3237C12.5391 24.9504 12.5608 25.5819 12.5317 26.2121C12.4349 27.2357 12.0817 28.5794 11.5998 29.7948C11.1828 30.8746 10.6402 32.0901 10.604 31.9947ZM15.8722 31.6418C15.519 30.8428 14.9722 29.531 14.8084 29.0191C14.3594 27.6755 14.1701 26.7472 14.1701 25.7236C14.1371 24.7953 14.202 24.2199 14.4265 23.5163C14.7593 22.487 15.3841 21.5758 16.2254 20.8925C16.7074 20.5078 17.6382 19.9642 17.8308 19.9642C17.8638 19.9642 18.2489 20.0289 18.634 20.0607C19.0155 20.1292 19.4028 20.1612 19.7904 20.156C20.3595 20.1322 20.9175 19.9908 21.4288 19.7406C21.8788 19.5488 22.0671 19.4227 22.5213 18.9724C22.7139 18.7806 22.9065 18.6206 22.9065 18.6206C22.9384 18.6524 22.8097 18.877 22.7139 19.037C22.4845 19.3405 22.2358 19.629 21.9692 19.9007C21.5116 20.2884 20.9746 20.5723 20.3958 20.7325C19.8925 20.8722 19.3758 20.9578 18.8542 20.9879C18.2975 21.0017 17.75 21.1328 17.2478 21.3725C16.0914 21.9479 15.1595 23.3562 14.935 24.8599C14.9031 25.0835 14.9031 25.3717 14.9031 26.1072C14.9031 27.3555 14.9031 27.419 15.2222 29.0191C15.3352 29.6278 15.4964 30.2266 15.7042 30.81C15.9605 31.5782 16.0893 31.9301 16.0574 31.9947C16.0574 32.0265 15.9605 31.8665 15.8648 31.6418H15.8722ZM10.1221 31.29C10.1379 31.1931 10.1596 31.0972 10.187 31.0028C10.2508 30.7782 10.2508 30.6849 10.2508 29.8192C10.2189 28.8909 10.2189 28.8591 10.154 28.5709C9.99337 27.8991 9.70506 27.3226 9.15824 26.459C8.90185 26.0754 8.90185 26.0754 8.96568 26.1072C9.19046 26.311 9.39496 26.536 9.57634 26.779C9.85083 27.1378 10.0875 27.5238 10.2827 27.9309C10.5718 28.4635 10.7365 29.0543 10.7647 29.6592V30.011L10.7328 29.8828C10.7008 29.7863 10.6689 29.7546 10.6359 29.7546C10.603 29.7546 10.604 29.7863 10.5721 29.9146C10.5083 30.4582 10.2827 31.1629 10.154 31.2921C10.0902 31.3229 10.0902 31.3229 10.1221 31.29ZM16.5148 31.29C16.3861 31.13 16.2254 30.6182 16.1286 30.1064C16.0648 29.691 16.0329 29.6592 15.968 29.8828L15.9042 30.0428L15.9361 29.691C15.9317 29.3194 15.997 28.9503 16.1286 28.6027C16.2893 28.0273 16.8031 27.1637 17.285 26.5554C17.4457 26.3636 17.7351 26.0754 17.7351 26.1072C17.767 26.1072 17.6702 26.2354 17.5744 26.3954C17.0287 27.2272 16.7393 27.8355 16.5786 28.4745C16.4499 28.8909 16.4499 29.0827 16.4499 29.9464C16.4499 30.6828 16.4499 30.7782 16.5148 31.0346C16.5467 31.1946 16.5786 31.3229 16.5786 31.3229C16.5618 31.3049 16.5393 31.2933 16.5148 31.29ZM10.8934 27.8355C10.9054 27.2661 10.8515 26.6971 10.7328 26.14C10.5721 25.5328 10.3795 25.1863 10.0583 24.861C9.83273 24.6363 9.73911 24.5728 9.12633 24.2527C7.39224 23.3245 6.26774 22.4926 5.72198 21.7572C5.49645 21.469 5.36878 21.149 5.36878 20.9889C5.4007 20.9254 5.4007 20.9571 5.59326 21.2136C5.85071 21.5315 5.88263 21.5972 6.29966 21.8494C6.67074 22.1326 7.06874 22.3789 7.48799 22.5848C8.13772 22.8572 8.80267 23.0922 9.47953 23.2884C10.2827 23.5449 10.5434 23.6402 10.7008 23.7049C10.9891 23.8649 11.3391 24.4403 11.504 25.0168C11.5558 25.2909 11.5772 25.5698 11.5679 25.8486C11.5679 26.3922 11.5679 26.4558 11.536 26.4558C11.504 26.4558 11.504 26.4558 11.3434 25.82L11.2466 25.4046L11.2147 26.3C11.2147 27.2283 11.1828 27.5801 11.086 28.0601C11.0537 28.181 11.0106 28.2988 10.9572 28.4119L10.9253 28.5402L10.8934 27.8355ZM15.7467 28.4427C15.6829 28.3473 15.618 28.0273 15.5541 27.8069C15.4893 27.3597 15.4893 27.0715 15.4573 26.2714V25.4078L15.3212 25.856C15.1935 26.4632 15.1935 26.4632 15.1286 26.4632C15.0967 26.4632 15.0967 26.3996 15.0967 25.8878C15.1286 25.3442 15.1286 25.252 15.1935 24.9913C15.3541 24.4159 15.7073 23.8723 16.0286 23.6805C16.1893 23.6159 16.5744 23.4876 17.2489 23.2958C17.9137 23.0947 18.5677 22.8598 19.2085 22.5922C19.5956 22.39 19.9707 22.1656 20.3319 21.9204C20.7181 21.6322 20.8788 21.5039 21.0394 21.2846C21.1351 21.1882 21.2 21.061 21.2639 20.9964L21.3277 20.9328L21.2958 21.061C21.2639 21.3789 21.0394 21.7328 20.6575 22.1482C20.0192 22.8201 19.0521 23.4601 17.6063 24.2284C16.968 24.5802 16.835 24.6755 16.5786 24.932C16.3329 25.1925 16.1566 25.5102 16.0659 25.856C15.8733 26.4314 15.8084 26.9157 15.8084 27.9033C15.8084 28.2551 15.7765 28.5391 15.7765 28.5391C15.7732 28.5053 15.7631 28.4725 15.7467 28.4427ZM10.5434 27.383C10.3883 27.2031 10.2474 27.0114 10.1221 26.8097C9.73698 26.2661 9.35186 25.7861 9.12633 25.6261C8.97182 25.5205 8.81086 25.4246 8.6444 25.3389C8.48376 25.2425 8.19545 25.0507 8.06672 24.9542C7.74757 24.7306 6.97414 23.9624 6.74967 23.6752C6.62094 23.4823 6.43051 23.1305 6.43051 23.067C6.43051 23.0352 6.52732 23.1305 7.00925 23.547C7.26564 23.7388 7.55501 23.9624 7.64757 24.0588C8.12949 24.4106 8.5795 24.6342 8.90079 24.666L9.02952 24.6989L9.22207 24.9224C9.3509 25.1112 9.49012 25.2927 9.63911 25.4661C10.0253 26.0107 10.3466 26.5257 10.4742 26.9062C10.5116 27.0046 10.5546 27.1008 10.603 27.1944C10.629 27.2548 10.64 27.3206 10.6349 27.3862V27.5144L10.5434 27.383ZM16.0361 27.383C16.0474 27.3162 16.0689 27.2515 16.0999 27.1912C16.1487 27.0979 16.1917 27.0016 16.2286 26.903C16.3893 26.4547 16.6457 26.0075 17.2244 25.2393C17.6414 24.6957 17.6734 24.6957 17.7702 24.6957C17.8722 24.6835 17.9707 24.6507 18.0595 24.5992C18.4766 24.471 18.8627 24.2156 19.6011 23.6074C19.8255 23.4156 20.083 23.192 20.1468 23.1274C20.2755 23.0638 20.2755 23.0638 20.2436 23.1274C20.083 23.672 18.8947 24.8557 18.0595 25.3357C17.902 25.4069 17.7513 25.4924 17.6095 25.5911C17.385 25.7511 17.0318 26.1676 16.5818 26.8065C16.0329 27.579 16.0329 27.5515 16.0329 27.3872L16.0361 27.383ZM14.9116 21.1437C14.9115 21.0575 14.9222 20.9717 14.9435 20.8883C15.0084 20.6965 15.0084 20.5365 15.0403 20.0564C15.0403 19.3528 15.0084 18.9968 14.9116 18.5528C14.719 17.6891 14.4616 17.1444 13.4339 15.5772C12.9839 14.9054 12.7275 14.4253 12.7594 14.3935C12.88 14.3589 12.998 14.3161 13.1126 14.2653C13.3371 14.1689 13.4318 14.1053 13.4318 14.0735C13.3721 14.0149 13.3077 13.9614 13.2392 13.9135C13.1768 13.8698 13.1224 13.8157 13.0786 13.7535C13.1814 13.593 13.2997 13.4429 13.4318 13.3053C13.6243 13.0817 13.785 12.8899 13.7509 12.8899C13.7509 12.857 13.3658 13.0499 13.1403 13.1452C12.5307 13.5288 11.9838 14.0089 11.9838 14.2335C11.9838 14.2653 12.0807 14.5207 12.1775 14.8089C12.2743 15.0972 12.4019 15.4172 12.4339 15.5507C12.5095 15.7537 12.5315 15.9726 12.4977 16.1865C12.4977 16.5712 12.4977 16.603 12.4339 16.763C12.373 16.8865 12.2854 16.995 12.1775 17.0809C12.1445 17.0809 12.1445 17.0809 12.2094 16.9526C12.4019 16.3168 12.2732 15.5454 11.8562 15.0972C11.6747 14.9171 11.4365 14.8048 11.1817 14.7793C10.9881 14.7475 10.9562 14.7475 10.3136 14.8757L10.2498 14.9075L10.3136 14.811C10.3803 14.755 10.4568 14.7116 10.5391 14.6828C10.7115 14.608 10.8491 14.4709 10.9242 14.2992C10.9881 14.171 11.2136 13.9813 11.5349 13.7238C12.5988 12.892 13.4935 12.3802 14.136 12.3155C14.618 12.2519 15.068 12.4119 15.2605 12.7955C15.3573 12.9556 15.3573 13.0191 15.2605 12.9238C15.0361 12.732 14.6499 12.7955 14.1041 13.1474C13.9133 13.2729 13.7404 13.4237 13.5903 13.5956C13.5584 13.6592 13.5584 13.691 13.6222 13.7556C13.6871 13.8838 13.9413 14.1074 14.169 14.2356C14.3054 14.3123 14.462 14.3456 14.618 14.331C14.7391 14.3385 14.8603 14.3167 14.9712 14.2674C15.0041 14.2674 15.068 14.2356 15.068 14.2674C15.0999 14.2674 15.0999 14.331 15.0999 14.4274C15.0999 14.5557 15.0999 14.5875 15.0361 14.6192C14.9073 14.7157 14.4573 14.7475 13.9722 14.6828L13.5871 14.651V14.7475C13.6229 14.872 13.677 14.9906 13.7477 15.0993C13.9911 15.5625 14.2933 15.9927 14.6467 16.3794C14.8722 16.603 14.9041 16.6665 15.0329 17.0152C15.2372 17.6672 15.3447 18.3455 15.352 19.0285C15.352 19.7957 15.2233 20.4994 15.0626 20.884C14.9722 21.0525 14.9084 21.1797 14.9084 21.1479L14.9116 21.1437ZM7.68161 18.9681C6.36455 18.8399 4.75813 18.2963 3.47299 17.5609C2.80406 17.1338 2.17998 16.6406 1.61018 16.089C1.35379 15.8008 0.839945 15.1289 0.485681 14.6171C0.229291 14.2335 -0.028162 13.7535 0.00481759 13.7217C0.00481759 13.6889 0.16546 13.8171 0.358018 14.0089C0.935057 14.5522 1.55833 15.0447 2.22083 15.4808C2.60595 15.7054 3.34533 16.089 3.47299 16.1166C3.5698 16.1484 3.5698 16.1484 3.53789 16.0848C3.50597 16.053 3.24852 15.7669 2.95915 15.449C2.12934 14.6235 1.54635 13.8531 1.09633 12.9577C0.485681 11.6458 0.100565 10.4621 0.0367333 9.37387C0.00481759 9.05596 0.00481759 8.92668 0.068649 8.31419C0.100565 7.93059 0.13248 7.57878 0.13248 7.54593C0.16546 7.48235 0.16546 7.51414 0.325039 7.86383C0.43664 8.20081 0.565536 8.53187 0.711219 8.85569C0.967608 9.56037 1.00059 9.68753 1.22506 10.104C1.70699 10.9676 2.25275 11.7677 2.31658 11.703C2.31658 11.703 2.22083 11.3512 2.0921 10.9676C1.67507 9.72038 1.61018 9.27214 1.57826 8.05669C1.57826 7.16021 1.61018 6.74482 1.70699 6.16835C1.84028 5.49141 2.0336 4.82757 2.28466 4.18465C2.4485 3.74382 2.79851 3.03914 2.89532 2.94377L2.95915 2.87913L2.92723 2.94377C2.92723 2.97556 2.8634 3.23094 2.79851 3.48738C2.54212 4.54706 2.5102 5.08749 2.5102 6.33472C2.51603 7.01171 2.59124 7.68634 2.73467 8.3481C2.8634 8.95635 3.02404 9.46818 3.11979 9.46818V9.37175C3.11979 8.95635 3.43895 7.93271 3.82619 6.87622C4.24429 5.88436 4.95069 4.63713 5.52836 3.90066C5.72092 3.64527 6.74861 2.62163 7.10181 2.30161C7.48692 1.9498 8.09758 1.56514 8.61142 1.24194C9.03058 1.02364 10.0583 0.511822 10.5083 0.317902C10.8934 0.189681 11.2147 0.061461 11.504 0H11.5998L11.536 0.0635804C11.504 0.0964302 11.3104 0.223591 11.1179 0.351811C10.9253 0.480032 10.7008 0.635804 10.604 0.703623C9.38378 1.76012 8.74121 2.43725 8.09864 3.32737C7.12131 4.69371 6.45277 6.25474 6.13902 7.90304C6.04622 8.44266 6.00349 8.98964 6.01135 9.53706C6.00316 10.2792 6.07845 11.02 6.23583 11.7454C6.41406 12.6168 6.66093 13.4728 6.97414 14.3056C7.16777 14.7538 7.61246 15.6832 7.96991 16.3529C8.28907 16.9293 8.48376 17.2811 8.48376 17.3129C8.45184 17.3129 8.06673 16.8975 7.87417 16.6411C7.39224 16.0053 6.55711 14.722 6.20391 14.0174C5.60816 12.8651 5.21693 11.619 5.0475 10.3339C4.9826 9.72674 4.95069 8.41486 5.0475 7.87019C5.17418 6.928 5.44581 6.01087 5.85284 5.15107C5.9805 4.89463 6.07731 4.70283 6.0454 4.70283C6.01348 4.67104 5.75603 4.99106 5.56347 5.27929C4.85115 6.30145 4.34894 7.4539 4.08577 8.67024C3.8613 9.50209 3.82832 9.8539 3.7964 11.1075V12.1311L3.70066 12.0347C3.54001 11.9075 3.28256 11.5229 2.99319 10.8828C2.54424 10.0192 2.3836 9.76382 2.41552 9.98742C2.47935 10.3392 2.60808 10.7292 2.99319 11.5875C3.34746 12.4194 3.60385 12.9312 3.92513 13.283C4.02194 13.3794 4.11769 13.5066 4.1496 13.5384L4.2145 13.6348L3.98896 13.603C3.60385 13.5712 3.37937 13.5066 2.86553 13.2512C2.68835 13.1553 2.50577 13.0697 2.31871 12.9948L2.22296 12.963L2.35169 13.1866C2.7368 13.7312 3.54001 14.6585 4.27833 15.4903C4.98473 16.2321 5.24219 16.4822 5.59539 16.7386C6.30179 17.2504 6.3986 17.314 6.3986 17.3458C6.36668 17.3458 5.85284 17.2504 5.49857 17.154C4.78898 16.9887 4.59749 16.9548 4.21237 16.9548L3.82619 16.923L3.89109 16.9866C4.05173 17.2727 5.0475 17.7569 6.5252 18.3323C7.13479 18.557 7.96991 18.9088 8.13056 18.9681L8.22737 18.9999H8.06672C7.93759 19.0028 7.80852 18.9921 7.68161 18.9681ZM18.4734 18.9999C18.5064 18.9999 19.3085 18.682 20.0798 18.3641C21.5575 17.7877 22.5267 17.3394 22.7458 17.0523L22.8426 16.9558H22.5852C22.266 16.924 21.9469 16.9876 21.2681 17.1476C20.949 17.2123 20.6575 17.2758 20.5617 17.3076C20.4968 17.3076 20.4011 17.3076 20.3692 17.3394C20.3362 17.3394 20.3362 17.3394 20.3362 17.3076C20.3362 17.3076 20.5936 17.1158 20.883 16.8922C21.4607 16.4758 21.6532 16.2564 22.4245 15.4204C22.8803 14.9653 23.3094 14.4845 23.7097 13.9803C24.0629 13.5649 24.4799 12.9884 24.448 12.9884C24.4161 12.9566 24.1288 13.053 23.8097 13.2448C23.6171 13.3402 23.3926 13.4367 23.2639 13.5002C23.0714 13.5649 22.5894 13.6285 22.5256 13.5967C22.4926 13.5967 22.5894 13.4684 22.7501 13.3084C23.1033 12.893 23.3607 12.4448 23.7139 11.613C23.8416 11.2611 24.0022 10.8447 24.0671 10.6529C24.1959 10.3011 24.2916 9.94927 24.2597 9.91748C24.2278 9.88569 24.1629 10.0128 23.8416 10.6847C23.3926 11.5494 23.232 11.8048 23.0714 11.9966L22.9107 12.1248L22.8788 11.1011C22.8788 9.94927 22.8469 9.66104 22.7182 8.9892C22.6214 8.6056 22.5256 8.28558 22.332 7.64554C22.083 6.95745 21.7714 6.29345 21.4011 5.66183C21.0479 5.11822 20.6947 4.63819 20.6564 4.70177C20.699 4.84454 20.7527 4.98378 20.8171 5.11822C21.1106 5.7322 21.3368 6.37598 21.4915 7.03835C21.6522 7.71018 21.6852 8.0302 21.6852 9.02205C21.6976 9.43844 21.6866 9.85519 21.6522 10.2703C21.4827 11.5014 21.1238 12.6991 20.5883 13.8213C20.028 14.8565 19.3949 15.8508 18.6936 16.7969C18.4681 17.0533 18.2117 17.3405 18.2117 17.3087C18.2117 17.2769 18.3404 17.0533 18.7255 16.285C19.4638 15.005 19.7532 14.3331 20.1085 13.1495C20.4044 12.1813 20.5886 11.1826 20.6575 10.1729C20.7613 8.61941 20.4975 7.06337 19.8872 5.63004C19.2128 3.96636 18.1521 2.52626 16.6106 1.17942C15.9999 0.635804 15.9722 0.604014 15.5829 0.347573C15.1009 0.0296708 15.069 -0.00423869 15.2935 0.0296708C16.0648 0.189681 17.6702 0.957944 18.634 1.59799C19.1479 1.9498 19.4691 2.20518 20.1766 2.87701C20.8149 3.48526 21.0117 3.67706 21.2681 4.02888C21.8318 4.82222 22.3161 5.66871 22.7139 6.5562C23.1629 7.64448 23.549 8.88748 23.549 9.37175C23.549 9.75641 23.8054 9.14816 23.9661 8.3481C24.1267 7.48447 24.1586 7.28843 24.1586 6.26902C24.1916 4.98894 24.1267 4.57355 23.8395 3.35704C23.8184 3.19507 23.7864 3.0347 23.7437 2.87701C23.7756 2.87701 23.9044 3.06881 24.0331 3.35704C24.5761 4.4428 24.9355 5.61034 25.0969 6.81264C25.1289 7.26088 25.1289 8.57275 25.065 8.98814C24.9884 9.6765 24.8265 10.3528 24.5831 11.0015C24.4544 11.418 24.3586 11.7051 24.3905 11.7051C24.5193 11.7051 25.4544 10.2015 25.7395 9.52964C25.8033 9.40248 25.964 8.95423 26.1246 8.50599C26.2853 8.0906 26.4438 7.67415 26.4778 7.61057C26.5427 7.51414 26.5427 7.48235 26.5746 7.54593C26.5746 7.61057 26.6066 7.93059 26.6385 8.2877C26.7034 9.05596 26.7034 9.40777 26.6066 9.98318C26.3821 11.2633 25.7395 12.8623 25.065 13.887C24.683 14.4356 24.253 14.9495 23.7799 15.4225C23.4905 15.7404 23.2022 16.0297 23.1692 16.0583L23.1373 16.1537L23.2022 16.1219C23.4267 16.0583 24.3586 15.5782 24.9044 15.1936C25.2576 14.9382 25.8682 14.4264 26.3172 14.0428C26.5097 13.8499 26.6704 13.6899 26.7034 13.7249C26.5607 14.0411 26.3864 14.3421 26.1831 14.6235C25.8588 15.1504 25.482 15.6435 25.0586 16.0954C24.7211 16.4541 24.3455 16.7753 23.9384 17.0533C22.5256 18.1405 20.4692 18.9088 18.7351 19.0042L18.4734 18.9999Z" fill="#828282"/>
<path d="M30.9277 17.3981H33.114V11.5265H39.1662V9.68903H33.114V5.24582H39.7226V3.36914H30.9277V17.3981Z" fill="#828282"/>
<path d="M50.5656 15.5119H43.8112V11.1567H50.205V9.34887H43.8112V5.24582H50.5656V3.36914H41.625V17.3981H50.5656V15.5119Z" fill="#828282"/>
<path d="M54.9383 7.06422H55.0266L62.3278 17.3981H64.2991V3.36914H62.1714V13.7137H62.0927L54.7925 3.36914H52.8105V17.3981H54.9383V7.06422Z" fill="#828282"/>
<path d="M69.0808 3.36914H66.8945V17.3981H69.0808V3.36914Z" fill="#828282"/>
<path d="M70.8105 17.3981H73.2308L76.7841 12.051H76.8522L80.3555 17.3981H82.913L78.2278 10.4372V10.3789L83.0013 3.36914H80.5321L77.0182 8.79466H76.9394L73.4649 3.36914H70.8584L75.4851 10.3015V10.3693L70.8105 17.3981Z" fill="#828282"/>
<path d="M31.6865 20.7119H30.9492V28.5058H31.6865V20.7119Z" fill="#828282"/>
<path d="M38.842 27.2204H38.8047L34.2163 20.7119H33.4844V28.5058H34.2163V21.992H34.2546L38.859 28.5058H39.5739V20.7119H38.842V27.2204Z" fill="#828282"/>
<path d="M43.9467 20.7119H41.3711V28.5047H43.9467C45.1212 28.5047 46.0329 28.1635 46.6819 27.4811C47.3308 26.7987 47.6553 25.84 47.6553 24.6051C47.6553 23.3738 47.3301 22.4169 46.6797 21.7345C46.0294 21.0521 45.1183 20.7112 43.9467 20.7119ZM46.1233 26.9989C45.6049 27.5577 44.8648 27.8368 43.9031 27.8361H42.1137V21.3816H43.9031C44.8648 21.3816 45.6049 21.6607 46.1233 22.2188C46.6418 22.7769 46.9014 23.5744 46.9021 24.6115C46.9021 25.6457 46.6425 26.4416 46.1233 26.9989Z" fill="#828282"/>
<path d="M54.4468 25.7411C54.4468 26.4038 54.2425 26.9364 53.834 27.3391C53.4255 27.7418 52.8669 27.9435 52.1584 27.9442C51.4492 27.9442 50.8907 27.7425 50.4828 27.3391C50.075 26.9357 49.8708 26.4031 49.8701 25.7411V20.7119H49.1328V25.7835C49.1328 26.6312 49.4048 27.3183 49.9488 27.8446C50.4928 28.3709 51.2293 28.6326 52.1584 28.6298C53.0875 28.6298 53.8251 28.368 54.3712 27.8446C54.9173 27.3211 55.1901 26.6341 55.1893 25.7835V20.7119H54.4446L54.4468 25.7411Z" fill="#828282"/>
<path d="M60.0722 24.2879L59.2264 24.076C58.6477 23.9276 58.23 23.7482 57.9732 23.5377C57.8497 23.4404 57.7506 23.3159 57.6838 23.1739C57.617 23.0319 57.5842 22.8764 57.5881 22.7196C57.5848 22.5148 57.6315 22.3122 57.7241 22.1292C57.8168 21.9463 57.9526 21.7885 58.12 21.6695C58.4747 21.3968 58.9254 21.2608 59.4722 21.2615C60.019 21.2622 60.4765 21.3964 60.8446 21.6642C61.0154 21.7865 61.1569 21.9449 61.259 22.1281C61.3611 22.3113 61.4212 22.5148 61.435 22.7239H62.1797C62.1727 22.4262 62.0983 22.1339 61.962 21.869C61.8257 21.604 61.631 21.3731 61.3925 21.1937C60.8882 20.7924 60.2566 20.5918 59.4977 20.5918C58.7232 20.5918 58.0849 20.7942 57.5828 21.199C57.3428 21.3793 57.1491 21.6135 57.0172 21.8825C56.8854 22.1516 56.8193 22.4478 56.8243 22.7472C56.8155 22.9784 56.8556 23.2089 56.942 23.4237C57.0283 23.6386 57.1589 23.833 57.3253 23.9944C57.6594 24.3151 58.1913 24.5673 58.9211 24.751L59.8924 24.999C60.4747 25.1473 60.8974 25.3356 61.1605 25.5638C61.2891 25.6728 61.3914 25.8092 61.4599 25.9629C61.5284 26.1166 61.5613 26.2837 61.5563 26.4518C61.558 26.6651 61.5074 26.8756 61.4087 27.0649C61.3101 27.2542 61.1664 27.4166 60.9903 27.5379C60.6123 27.8205 60.1304 27.9618 59.5445 27.9618C58.9339 27.9618 58.4261 27.817 58.0211 27.5273C57.8278 27.4015 57.6661 27.2332 57.5485 27.0354C57.4308 26.8375 57.3603 26.6154 57.3424 26.3861H56.5977C56.6097 26.7026 56.6924 27.0125 56.8396 27.2933C56.9868 27.5741 57.1949 27.8187 57.4487 28.0095C57.9764 28.4214 58.6502 28.6273 59.4701 28.6273C60.3339 28.6273 61.0226 28.4214 61.5361 28.0095C61.7852 27.815 61.9848 27.5647 62.1186 27.2789C62.2524 26.9932 62.3167 26.68 62.3063 26.3649C62.3063 25.8245 62.1308 25.3921 61.7797 25.0678C61.4286 24.7436 60.8595 24.4836 60.0722 24.2879Z" fill="#828282"/>
<path d="M63.1484 21.3816H65.7676V28.5058H66.5102V21.3816H69.1294V20.7119H63.1484V21.3816Z" fill="#828282"/>
<path d="M75.261 24.4077C75.5623 23.999 75.7188 23.5021 75.7057 22.9952C75.7057 22.3 75.4791 21.7465 75.0259 21.3347C74.5727 20.9228 73.9641 20.7165 73.2003 20.7158H70.4023V28.5055H71.1407V25.3148H73.2609L75.061 28.5055H75.9227L74.0301 25.1951C74.5202 25.084 74.9557 24.8054 75.261 24.4077ZM73.1407 24.661H71.1407V21.376H73.1141C73.6858 21.376 74.1329 21.5208 74.4556 21.8105C74.7783 22.1001 74.9404 22.5024 74.9418 23.0174C74.9418 23.5402 74.7837 23.9454 74.4673 24.2329C74.151 24.5204 73.7088 24.6631 73.1407 24.661Z" fill="#828282"/>
<path d="M82.1392 20.7119L79.8231 24.4123H79.7965L77.4805 20.7119H76.6348L79.438 25.136V28.5058H80.1817V25.136L82.9849 20.7119H82.1392Z" fill="#828282"/>
</g>
<defs>
<clipPath id="clip0_1285_2489">
<rect width="83" height="32" fill="white"/>
</clipPath>
</defs>
</svg>
