<svg width="40" height="40" viewBox="0 0 40 40" fill="none" xmlns="http://www.w3.org/2000/svg">
<path d="M31.2337 29.8602L25.5217 23.9194C26.9903 22.1735 27.795 19.9768 27.795 17.69C27.795 12.347 23.448 8 18.105 8C12.7621 8 8.41504 12.347 8.41504 17.69C8.41504 23.033 12.7621 27.38 18.105 27.38C20.1109 27.38 22.0223 26.775 23.6566 25.6265L29.412 31.6124C29.6525 31.8622 29.9761 32 30.3228 32C30.651 32 30.9624 31.8749 31.1987 31.6474C31.7009 31.1641 31.7169 30.3628 31.2337 29.8602ZM18.105 10.5278C22.0543 10.5278 25.2672 13.7407 25.2672 17.69C25.2672 21.6393 22.0543 24.8522 18.105 24.8522C14.1557 24.8522 10.9429 21.6393 10.9429 17.69C10.9429 13.7407 14.1557 10.5278 18.105 10.5278Z" fill="white"/>
</svg>
