<svg width="40" height="40" viewBox="0 0 40 40" fill="none" xmlns="http://www.w3.org/2000/svg">
<rect x="0.5" y="0.5" width="39" height="39" rx="3.5" stroke="white"/>
<g clip-path="url(#clip0_281_24744)">
<path d="M29.2308 15.5H10.7692C10.5652 15.5 10.3696 15.421 10.2253 15.2803C10.081 15.1397 10 14.9489 10 14.75C10 14.5511 10.081 14.3603 10.2253 14.2197C10.3696 14.079 10.5652 14 10.7692 14H29.2308C29.4348 14 29.6304 14.079 29.7747 14.2197C29.919 14.3603 30 14.5511 30 14.75C30 14.9489 29.919 15.1397 29.7747 15.2803C29.6304 15.421 29.4348 15.5 29.2308 15.5Z" fill="white"/>
<path d="M29.2308 20.75H10.7692C10.5652 20.75 10.3696 20.671 10.2253 20.5303C10.081 20.3897 10 20.1989 10 20C10 19.8011 10.081 19.6103 10.2253 19.4697C10.3696 19.329 10.5652 19.25 10.7692 19.25H29.2308C29.4348 19.25 29.6304 19.329 29.7747 19.4697C29.919 19.6103 30 19.8011 30 20C30 20.1989 29.919 20.3897 29.7747 20.5303C29.6304 20.671 29.4348 20.75 29.2308 20.75Z" fill="white"/>
<path d="M29.2308 26H10.7692C10.5652 26 10.3696 25.921 10.2253 25.7803C10.081 25.6397 10 25.4489 10 25.25C10 25.0511 10.081 24.8603 10.2253 24.7197C10.3696 24.579 10.5652 24.5 10.7692 24.5H29.2308C29.4348 24.5 29.6304 24.579 29.7747 24.7197C29.919 24.8603 30 25.0511 30 25.25C30 25.4489 29.919 25.6397 29.7747 25.7803C29.6304 25.921 29.4348 26 29.2308 26Z" fill="white"/>
</g>
<defs>
<clipPath id="clip0_281_24744">
<rect width="24" height="24" fill="white" transform="translate(8 8)"/>
</clipPath>
</defs>
</svg>
