<svg width="40" height="40" viewBox="0 0 40 40" fill="none" xmlns="http://www.w3.org/2000/svg">
<circle cx="20" cy="20" r="20" fill="#C11F32"/>
<path d="M29.4755 24.678L26.6786 21.8869C25.6797 20.8901 23.9816 21.2889 23.582 22.5847C23.2823 23.4818 22.2834 23.9802 21.3844 23.7808C19.3866 23.2824 16.6896 20.6907 16.1901 18.5975C15.8904 17.7003 16.4898 16.7035 17.3888 16.4045C18.6874 16.0058 19.0869 14.3112 18.088 13.3144L15.2911 10.5233C14.492 9.82556 13.2933 9.82556 12.5941 10.5233L10.6961 12.4173C8.79823 14.4109 10.8959 19.6939 15.5908 24.3789C20.2856 29.0639 25.5798 31.2569 27.5776 29.2633L29.4755 27.3693C30.1748 26.5719 30.1748 25.3757 29.4755 24.678Z" fill="white"/>
</svg>
