<svg width="24" height="24" viewBox="0 0 24 24" fill="none" xmlns="http://www.w3.org/2000/svg">
<g clip-path="url(#clip0_1285_2624)">
<path d="M6.81315 6.31139C5.33223 8.1442 5.14703 14.0702 6.81315 15.7364C7.18515 16.1083 7.75276 16.3952 8.43685 16.6026L8.43179 19.5618C8.43169 19.5931 8.44115 19.6238 8.45892 19.6496C8.47669 19.6755 8.50192 19.6953 8.53124 19.7064C8.56057 19.7175 8.59258 19.7194 8.62301 19.7118C8.65344 19.7043 8.68085 19.6876 8.70156 19.6641L11.0319 17.0055C13.3667 17.1086 15.926 16.6488 17.0554 15.7364C18.8882 14.2554 18.7215 7.97747 17.0554 6.31135C15.2447 4.5008 8.42246 4.31981 6.81315 6.31139ZM11.9236 6.65316C14.1692 6.8017 15.7026 8.46661 15.809 10.8739C15.8106 10.8988 15.8073 10.9238 15.7992 10.9473C15.7911 10.9709 15.7783 10.9927 15.7617 11.0113C15.745 11.0299 15.7249 11.045 15.7023 11.0557C15.6798 11.0664 15.6553 11.0725 15.6304 11.0736C15.6055 11.0748 15.5806 11.0709 15.5572 11.0623C15.5337 11.0537 15.5123 11.0405 15.494 11.0234C15.4758 11.0064 15.4611 10.9859 15.4509 10.9632C15.4406 10.9404 15.4351 10.9158 15.4344 10.8909C15.3382 8.65406 13.9726 7.16217 11.8992 7.02727C11.8743 7.02622 11.8498 7.0202 11.8272 7.00955C11.8045 6.9989 11.7843 6.98384 11.7676 6.96525C11.7509 6.94667 11.7381 6.92493 11.7299 6.90132C11.7217 6.87771 11.7183 6.8527 11.72 6.82776C11.7216 6.80283 11.7282 6.77847 11.7393 6.75612C11.7505 6.73376 11.766 6.71387 11.785 6.6976C11.804 6.68133 11.826 6.66902 11.8498 6.66139C11.8736 6.65376 11.8987 6.65096 11.9236 6.65316ZM12.249 8.30081C12.2243 8.29859 12.2002 8.29148 12.1783 8.2799C12.1563 8.26833 12.1369 8.25251 12.1211 8.23336C12.1053 8.21422 12.0935 8.19213 12.0863 8.16839C12.0791 8.14464 12.0767 8.1197 12.0792 8.09501C12.0818 8.07033 12.0892 8.04639 12.101 8.02459C12.1128 8.00278 12.1289 7.98354 12.1482 7.96799C12.1676 7.95243 12.1898 7.94087 12.2136 7.93397C12.2375 7.92707 12.2624 7.92496 12.2871 7.92778C13.607 8.05135 14.5104 9.03403 14.6024 10.4492C14.6038 10.4744 14.6001 10.4997 14.5915 10.5234C14.5829 10.5472 14.5695 10.569 14.5522 10.5874C14.5349 10.6058 14.5141 10.6206 14.4909 10.6307C14.4677 10.6408 14.4428 10.6462 14.4175 10.6463H14.4172C14.369 10.6468 14.3225 10.6286 14.2873 10.5957C14.2521 10.5628 14.2309 10.5177 14.228 10.4696C14.1475 9.23377 13.3911 8.4052 12.249 8.30081ZM13.3967 10.4664H13.3941C13.3482 10.467 13.3038 10.4506 13.2693 10.4204C13.2348 10.3901 13.2127 10.3482 13.2072 10.3027C13.1465 9.7951 12.8348 9.44869 12.371 9.37224C12.3258 9.36547 12.2847 9.34251 12.2552 9.30764C12.2257 9.27278 12.2099 9.22838 12.2107 9.18272V9.18033C12.2115 9.15364 12.218 9.12743 12.2298 9.10346C12.2416 9.07949 12.2584 9.05833 12.279 9.04138C12.2996 9.02443 12.3237 9.0121 12.3495 9.0052C12.3753 8.99831 12.4022 8.99702 12.4286 9.00141C13.0626 9.10299 13.5003 9.58092 13.5799 10.2611C13.5827 10.2869 13.58 10.3129 13.5721 10.3376C13.5642 10.3623 13.5512 10.3851 13.534 10.4044C13.5167 10.4238 13.4956 10.4393 13.472 10.45C13.4484 10.4608 13.4228 10.4664 13.3969 10.4666L13.3967 10.4664ZM15.8163 14.3468C15.4882 14.9964 14.7851 15.6526 14.1757 15.4314C13.2379 15.091 11.9329 14.4068 10.938 13.605C8.82606 11.9074 8.16282 9.65635 7.80062 8.95322C7.51937 8.01202 8.85662 7.28545 8.85662 7.28545C9.14457 7.1311 9.42381 7.18233 9.61131 7.40977C9.78582 7.64986 10.1349 7.96711 10.6498 8.88464C10.842 9.23189 10.724 9.58777 10.532 9.73777C10.2769 9.94519 9.96221 10.1217 9.98654 10.4966C9.98654 10.4966 10.5494 12.6576 12.6527 13.206C13.023 13.2294 13.1981 12.9022 13.3988 12.6487C13.5662 12.418 13.9412 12.3711 14.241 12.5286C14.6466 12.7418 15.3013 13.2103 15.6941 13.5876C15.9167 13.7724 15.9664 14.0498 15.8163 14.3469V14.3468Z" fill="white"/>
<path d="M12 0.28125C5.52792 0.28125 0.28125 5.52792 0.28125 12C0.28125 18.4721 5.52792 23.7188 12 23.7188C18.4721 23.7188 23.7188 18.4721 23.7188 12C23.7188 5.52792 18.4721 0.28125 12 0.28125ZM19.5205 11.9716C19.4528 13.251 19.1382 15.5597 17.7918 16.6478C16.383 17.7861 13.7124 18.1917 11.6828 18.1917C11.4332 18.1917 11.1091 18.1849 10.7394 18.1619L9.12516 20.0536C8.72072 20.5275 7.94517 20.2308 7.96036 19.608L8.00723 17.6921C7.23731 17.4495 6.51192 17.0921 5.98462 16.5649C4.56708 15.1473 4.44712 12.2514 4.46119 11.0721C4.47187 10.1874 4.6073 7.17656 5.90166 5.5747C7.25962 3.89423 10.4137 3.71278 11.7067 3.71278C13.8373 3.71278 16.5789 4.17773 17.8838 5.48264C18.5022 6.10092 18.9609 7.07916 19.2473 8.39011C19.4876 9.4897 19.5846 10.7616 19.5205 11.9716Z" fill="white"/>
</g>
<defs>
<clipPath id="clip0_1285_2624">
<rect width="24" height="24" fill="white"/>
</clipPath>
</defs>
</svg>
