<svg width="40" height="40" viewBox="0 0 40 40" fill="none" xmlns="http://www.w3.org/2000/svg">
<circle cx="20" cy="20" r="20" fill="#C11F32"/>
<path d="M23.1506 17.922C24.4766 16.713 26.2698 15.078 26.4332 11.1719H27.6172V10H12.3828V11.1719H13.5668C13.7302 15.078 15.5234 16.713 16.8494 17.922C17.7389 18.733 18.2422 19.2293 18.2422 20C18.2422 20.7707 17.7389 21.267 16.8494 22.078C15.5234 23.287 13.7302 24.922 13.5668 28.8281H12.3828V30H27.6172V28.8281H26.4332C26.2698 24.922 24.4766 23.287 23.1506 22.078C22.2611 21.267 21.7578 20.7707 21.7578 20C21.7578 19.2293 22.2611 18.733 23.1506 17.922ZM19.4141 24.3921C19.2331 24.4295 19.0543 24.4838 18.8798 24.556L15.2909 26.0411C15.877 24.5509 16.8209 23.6898 17.6389 22.944C18.5518 22.1117 19.4141 21.3256 19.4141 20V24.3921ZM22.3611 22.944C23.1791 23.6898 24.123 24.5509 24.7091 26.0411L21.1202 24.5559C20.9457 24.4837 20.7669 24.4294 20.5859 24.3921V20C20.5859 21.3256 21.4482 22.1117 22.3611 22.944ZM15.2703 13.9062C14.987 13.168 14.7913 12.2766 14.7401 11.1719H25.2599C25.2087 12.2766 25.013 13.168 24.7297 13.9062H15.2703Z" fill="white"/>
</svg>
